HIERARCHY
ROOT Hips
{
  OFFSET 0 0 0
  CHANNELS 6 Xposition Yposition Zposition Zrotation Yrotation Xrotation
  JOINT LeftThigh
  {
    OFFSET 8.409438 0 -5.917753
    CHANNELS 3 Zrotation Yrotation Xrotation
    JOINT LeftLeg
    {
      OFFSET 0 0 -42.358652
      CHANNELS 3 Zrotation Yrotation Xrotation
      JOINT LeftFoot
      {
        OFFSET 0 0 -39.357303
        CHANNELS 3 Zrotation Yrotation Xrotation
      }
    }
  }
  JOINT RightThigh
  {
    OFFSET -8.409438 0 -5.917753
    CHANNELS 3 Zrotation Yrotation Xrotation
    JOINT RightLeg
    {
      OFFSET 0 0 -42.358652
      CHANNELS 3 Zrotation Yrotation Xrotation
      JOINT RightFoot
      {
        OFFSET 0 0 -39.357303
        CHANNELS 3 Zrotation Yrotation Xrotation
      }
    }
  }
  JOINT SpineLow
  {
    OFFSET 0 0 4.719101
    CHANNELS 3 Zrotation Yrotation Xrotation
    JOINT SpineMid
    {
      OFFSET 0 0 12.899191
      CHANNELS 3 Zrotation Yrotation Xrotation
      JOINT Chest
      {
        OFFSET 0 0 12.899191
        CHANNELS 3 Zrotation Yrotation Xrotation
        JOINT LeftShoulder
        {
          OFFSET 7.550562 1.41573 9.438202
          CHANNELS 3 Zrotation Yrotation Xrotation
          JOINT LeftArm
          {
            OFFSET 9.155056 0 4.247191
            CHANNELS 3 Zrotation Yrotation Xrotation
            JOINT LeftForearm
            {
              OFFSET 0 0 25.771955
              CHANNELS 3 Zrotation Yrotation Xrotation
              JOINT LeftHand
              {
                OFFSET 0 0 25.197169
                CHANNELS 3 Zrotation Yrotation Xrotation
              }
            }
          }
        }
        JOINT RightShoulder
        {
          OFFSET -7.550562 1.41573 9.438202
          CHANNELS 3 Zrotation Yrotation Xrotation
          JOINT RightArm
          {
            OFFSET -9.155056 0 4.247191
            CHANNELS 3 Zrotation Yrotation Xrotation
            JOINT RightForearm
            {
              OFFSET 0 0 -25.771955
              CHANNELS 3 Zrotation Yrotation Xrotation
              JOINT RightHand
              {
                OFFSET 0 0 -25.197169
                CHANNELS 3 Zrotation Yrotation Xrotation
              }
            }
          }
        }
        JOINT Neck
        {
          OFFSET 0 0 15.101124
          CHANNELS 3 Zrotation Yrotation Xrotation
          JOINT Head
          {
            OFFSET 0 0 11.325843
            CHANNELS 3 Zrotation Yrotation Xrotation
            End Site
            {
              OFFSET 0 0 14.157303
            }
          }
        }
      }
    }
  }
}
MOTION
Frames: 12
Frame Time: 0.0
0.0  93.25843  0.0  -4.348788  -51.999204  -95.422308  40.584296  -30.987852  -38.063293  3.703241  4.506777  32.385069  6.552143  1.566434  6.540034  -2.691301  16.944147  -0.580469  3.322693  3.728551  31.217674  -3.003799  5.535789  -9.328721  1.940124  -0.913488  0.201158  5.297839  -2.511197  0.476373  5.297839  -2.511197  0.476373  -4.312862  15.88036  9.492141  -139.964382  62.027937  -86.772094  -32.128406  5.086549  85.406626  90.29869  -8.239153  -7.55217  -3.435949  -10.353781  21.70011  80.558302  33.084403  37.347387  -13.773623  1.31482  -111.857525  73.652303  -12.240717  -25.670979  -8.504469  6.10904  7.982546  -6.45364  4.472745  6.067896  
0.0  93.25843  0.0  -4.614856  -51.389194  -95.119803  40.23485  -31.313699  -38.331946  4.232082  4.739077  32.034932  6.782681  1.563613  6.628552  -2.452176  16.761991  -0.105417  2.767151  3.490759  30.777705  -3.002813  5.552272  -9.260708  2.015191  -0.855984  0.314581  5.499238  -2.364045  0.788185  5.499238  -2.364045  0.788184  -4.833428  15.334627  8.54616  -141.336109  62.289449  -88.427805  -31.874096  5.03293  85.788331  89.907955  -7.871199  -7.092433  -3.585146  -10.646902  21.169601  79.817435  32.757448  36.647362  -13.769548  1.381334  -111.386998  74.337765  -12.113947  -24.051887  -9.117334  5.613768  7.420471  -6.902059  4.101517  5.646356  
0.0  93.25843  0.0  -4.955765  -50.628691  -94.763515  39.987239  -31.476  -38.754688  4.623322  4.849845  31.942126  7.089472  1.568522  6.650651  -1.978186  16.532507  0.562055  2.213136  3.214634  30.209213  -3.20291  5.553629  -9.176908  2.095066  -0.82518  0.393184  5.715159  -2.28759  1.002701  5.715159  -2.28759  1.002701  -5.419838  14.894109  7.840614  -143.116592  62.456091  -89.820737  -31.419724  4.46935  85.598488  89.392915  -7.390738  -6.599238  -3.795653  -10.917257  20.933841  79.215829  32.54026  35.933211  -14.12129  1.49065  -110.877134  74.810875  -12.179897  -22.502923  -9.731455  5.237829  6.98287  -7.354609  3.818998  5.318699  
0.0  93.25843  0.0  -5.197038  -49.912456  -94.626841  39.876229  -31.535291  -39.111291  4.85076  4.964304  31.909715  7.41736  1.487201  6.802684  -1.241595  16.30496  1.512056  1.418323  2.891801  29.498611  -3.41812  5.527335  -9.023872  2.179469  -0.817581  0.465103  5.943538  -2.274501  1.1969  5.943538  -2.274501  1.1969  -6.021648  14.614029  7.361568  -144.689179  62.761978  -91.771643  -30.996141  4.374365  85.760567  88.82666  -6.852824  -6.118607  -4.086788  -11.123099  20.761647  78.81209  32.307968  35.319546  -14.476141  1.541336  -110.370256  75.002845  -12.368942  -21.158201  -10.908769  4.765819  6.55691  -8.229186  3.459164  5.001973  
0.0  93.25843  0.0  -5.422711  -48.809236  -94.604095  39.498576  -31.427106  -39.387644  4.871955  5.054879  31.86694  7.684416  1.417372  6.902914  -0.713054  16.15449  2.625935  0.747103  2.522566  28.716673  -3.824397  5.540725  -8.90194  2.198218  -0.833199  0.521757  5.992575  -2.322598  1.349613  5.992575  -2.322598  1.349613  -6.305121  14.561691  7.180245  -147.067907  63.060992  -93.685237  -30.449011  3.812183  85.422579  88.348701  -6.295024  -5.66295  -4.164496  -11.227241  20.810134  78.005025  32.367079  34.561615  -14.575397  1.514275  -109.958713  75.090949  -12.395921  -19.752163  -11.44018  4.661721  6.338631  -8.624912  3.379526  4.840795  
0.0  93.25843  0.0  -5.15171  -48.903407  -95.221011  40.064346  -31.139616  -39.318242  4.941201  4.918645  31.987861  7.859162  1.325232  7.039732  1.120402  16.182418  4.08296  0.028869  2.252561  27.781856  -4.263073  5.413062  -8.664903  2.359206  -0.843578  0.607261  6.429515  -2.36237  1.576426  6.429515  -2.36237  1.576427  -6.174187  14.678355  7.165365  -149.932769  63.464818  -96.212175  -29.879345  3.342443  85.152391  88.02893  -5.688627  -5.135844  -4.232826  -11.219938  20.8905  77.22178  32.562371  33.922019  -14.440713  1.545245  -109.72856  75.181499  -12.18586  -17.903149  -11.934955  4.652483  6.207822  -8.994712  3.37012  4.74649  
0.0  93.25843  0.0  -5.280992  -47.546074  -95.133704  39.501934  -30.577372  -39.669162  4.934169  4.605849  32.185647  7.774824  1.356713  7.065106  1.231561  16.125929  5.056313  -0.549779  1.960673  26.857105  -4.700974  5.39309  -8.478428  2.330375  -0.87402  0.602972  6.350255  -2.444417  1.562863  6.350255  -2.444417  1.562863  -6.106784  14.738429  7.261123  -153.282287  63.86237  -99.014268  -29.220657  2.625307  84.737136  87.786369  -4.952681  -4.405805  -4.14786  -11.134613  21.17739  75.768805  33.175012  32.907003  -14.450502  2.156  -109.679114  74.762935  -11.861124  -15.41495  -12.439661  4.707876  6.172971  -9.373237  3.407399  4.725466  
0.0  93.25843  0.0  -5.00821  -47.438936  -95.509314  39.850098  -29.88725  -39.762869  4.692394  4.310791  32.415354  7.857094  1.3411  7.21087  2.656107  16.241994  6.225361  -1.15959  1.824938  25.788323  -4.940992  5.300201  -8.162061  2.499686  -0.899014  0.599179  6.812903  -2.516089  1.543581  6.812903  -2.516089  1.543581  -6.049561  14.909873  7.541439  -156.782847  64.423962  -102.2145  -28.543947  1.663159  84.379231  87.531293  -4.039695  -3.537239  -4.215631  -10.921054  21.493171  74.500483  33.799998  31.956293  -14.933836  3.427052  -109.692792  73.545826  -11.512668  -12.609336  -13.029588  4.834274  6.271138  -9.817282  3.494384  4.806442  
0.0  93.25843  0.0  -5.16525  -46.041264  -95.277036  39.007819  -29.123743  -40.139129  4.2068  4.123646  32.707375  7.896878  1.365538  7.186039  2.400189  16.277895  6.995977  -1.650572  1.653798  24.752226  -5.362833  5.22875  -7.928588  2.466142  -0.980733  0.505561  6.723618  -2.728944  1.280938  6.723618  -2.728944  1.280938  -5.8968  15.380039  8.046892  -160.384776  64.967908  -105.439958  -27.545828  0.342747  83.929126  87.346988  -2.867179  -2.794111  -3.79345  -10.609212  21.899654  72.966891  34.561499  30.989928  -15.910054  5.482859  -109.786266  71.408105  -11.256534  -9.752098  -13.580135  5.151984  6.449462  -10.234032  3.723422  4.951497  
0.0  93.25843  0.0  -4.80263  -45.642229  -95.449984  38.730369  -28.221394  -40.28456  3.732367  3.971357  33.153039  7.998402  1.386958  7.184673  3.089951  16.601995  7.805236  -2.141001  1.596355  23.641088  -5.920876  4.847897  -7.568499  2.582974  -1.029348  0.445795  7.045082  -2.857426  1.107668  7.045083  -2.857427  1.107668  -5.693823  15.972455  8.574385  -163.659756  65.573439  -108.41781  -26.329958  -0.931297  83.473048  87.327682  -1.348017  -2.271588  -3.242087  -10.295015  21.871405  71.835918  35.214434  30.300093  -17.379145  7.045325  -109.51883  69.469288  -10.68014  -7.784553  -14.17475  5.496138  6.541175  -10.683276  3.973555  5.033161  
0.0  93.25843  0.0  -4.771232  -44.51546  -95.452715  37.720891  -27.605273  -40.389342  3.11993  4.076724  33.546648  8.090481  1.486282  7.157438  2.988087  16.766648  8.674009  -2.738567  1.5923  22.54718  -6.24502  4.769274  -7.310613  2.683605  -1.032732  0.41031  7.321813  -2.8643  1.005978  7.321812  -2.8643  1.005978  -6.011221  16.108639  8.970633  -166.340438  66.288919  -110.830937  -24.985051  -1.671972  83.018082  87.462009  0.625861  -1.676191  -3.022909  -10.370008  21.554333  70.74661  36.109471  29.500941  -18.892651  8.037183  -109.268944  67.932833  -10.049057  -6.315989  -15.025081  5.611035  6.59118  -11.32197  4.049791  5.081429  
0.0  93.25843  0.0  -4.556589  -43.6366  -95.706591  36.580977  -27.100367  -40.290176  2.638493  4.277928  34.049764  8.257704  1.557408  7.175553  3.31189  16.9455  9.782673  -3.430858  1.719328  21.331159  -6.664938  4.573703  -6.95175  2.84338  -0.987761  0.370821  7.760824  -2.739164  0.896393  7.760823  -2.739164  0.896393  -6.448782  16.032785  9.461147  -167.651582  67.133489  -112.105865  -23.533429  -1.542299  82.537369  87.582737  2.774902  -0.695415  -3.247751  -10.72754  21.254111  70.221142  37.320703  28.89007  -20.108754  8.780357  -108.830954  67.046824  -9.250973  -4.822973  -15.970765  5.576265  6.803968  -12.032551  4.008324  5.24935  
